<?xml version="1.0" encoding="UTF-8"?>
<svg width="43px" height="28px" viewBox="0 0 43 28" version="1.1" xmlns="http://www.w3.org/2000/svg" xmlns:xlink="http://www.w3.org/1999/xlink">
    <!-- Generator: Sketch 48.2 (47327) - http://www.bohemiancoding.com/sketch -->
    <title>Group 2</title>
    <desc>Created with Sketch.</desc>
    <defs></defs>
    <g id="evaluacion.ronda-1-copy-2" stroke="none" stroke-width="1" fill="none" fill-rule="evenodd" transform="translate(-698.000000, -177.000000)">
        <g id="Group-2" transform="translate(698.000000, 177.000000)">
            <path d="M0,0 L29,0 C36.7319865,-1.42034288e-15 43,6.2680135 43,14 L43,14 C43,21.7319865 36.7319865,28 29,28 L0,28 L0,0 Z" id="Rectangle-2" fill="#EC0000"></path>
            <path d="M19.2141682,22.3520462 L19.2141682,4.67375594 C19.2141682,3.86580692 19.6245739,3.21083482 20.1308349,3.21083482 C20.6370959,3.21083482 21.0475016,3.86580692 21.0475016,4.67375594 L21.0475016,22.2609003 L25.8317936,17.4766083 C26.1861582,17.1222437 26.7606968,17.1222437 27.1150614,17.4766083 C27.4694261,17.8309729 27.4694261,18.4055115 27.1150614,18.7598762 L20.7632096,25.111728 C20.5881132,25.2868244 20.3592617,25.3754033 20.1297774,25.3774647 C19.8720772,25.399668 19.6067028,25.3121641 19.4094916,25.1149529 L13.0550471,18.7605084 C12.7005379,18.4059992 12.7005379,17.8312261 13.0550471,17.4767168 C13.4095564,17.1222075 13.9843295,17.1222075 14.3388388,17.4767168 L19.2141682,22.3520462 Z" id="Combined-Shape-Copy-6" stroke="#FFFFFF" fill="#FFFFFF" stroke-linecap="round" transform="translate(20.085000, 14.295835) scale(-1, 1) rotate(90.000000) translate(-20.085000, -14.295835) "></path>
        </g>
    </g>
</svg>