<?xml version="1.0" encoding="utf-8"?>
<!-- Generator: Adobe Illustrator 16.0.0, SVG Export Plug-In . SVG Version: 6.00 Build 0)  -->
<!DOCTYPE svg PUBLIC "-//W3C//DTD SVG 1.1//EN" "http://www.w3.org/Graphics/SVG/1.1/DTD/svg11.dtd">
<svg version="1.1" id="Layer_1" xmlns="http://www.w3.org/2000/svg" xmlns:xlink="http://www.w3.org/1999/xlink" x="0px" y="0px"
	 width="15px" height="15px" viewBox="0 0 15 15" enable-background="new 0 0 15 15" xml:space="preserve">
<g>
	<path d="M11.304,2.605H9.922c-1.083,0-1.286,0.519-1.286,1.268v1.664h2.58l-0.344,2.606H8.636v6.683H5.942V8.143H3.696V5.537h2.246
		V3.617c0-2.228,1.364-3.442,3.354-3.442c0.951,0,1.771,0.07,2.008,0.105V2.605z"/>
</g>
<g>
	<path d="M-14.642,3.997h-0.018c-0.978,0-1.603-0.669-1.603-1.506c0-0.854,0.651-1.505,1.638-1.505c0.995,0,1.611,0.651,1.62,1.505
		C-12.995,3.328-13.629,3.997-14.642,3.997z M-13.189,13.91h-2.905V5.186h2.905V13.91z M-2.738,13.91h-2.896V9.244
		c0-1.171-0.423-1.972-1.471-1.972c-0.801,0-1.276,0.536-1.487,1.056C-8.664,8.522-8.69,8.777-8.69,9.042v4.868h-2.896
		c0.035-7.906,0-8.725,0-8.725h2.896v1.268h-0.018c0.379-0.599,1.065-1.47,2.633-1.47c1.91,0,3.337,1.25,3.337,3.926V13.91z"/>
</g>
<g>
	<path d="M-19.988,4.674c0.009,0.123,0.009,0.247,0.009,0.37c0,3.759-2.861,8.091-8.092,8.091c-1.61,0-3.107-0.467-4.366-1.276
		c0.229,0.026,0.449,0.035,0.687,0.035c1.33,0,2.554-0.449,3.53-1.215c-1.25-0.026-2.298-0.846-2.658-1.973
		c0.176,0.026,0.352,0.044,0.537,0.044c0.255,0,0.511-0.035,0.748-0.097c-1.303-0.264-2.28-1.409-2.28-2.791
		c0-0.009,0-0.026,0-0.035c0.379,0.211,0.818,0.343,1.285,0.361c-0.766-0.51-1.268-1.382-1.268-2.368
		c0-0.528,0.141-1.013,0.388-1.435c1.399,1.726,3.504,2.853,5.863,2.976c-0.044-0.211-0.07-0.431-0.07-0.651
		c0-1.567,1.268-2.844,2.844-2.844c0.818,0,1.558,0.343,2.077,0.898c0.644-0.123,1.26-0.361,1.806-0.687
		c-0.212,0.66-0.661,1.215-1.251,1.567c0.572-0.062,1.127-0.22,1.638-0.44C-18.949,3.767-19.434,4.269-19.988,4.674z"/>
</g>
<g>
	<path d="M27.108,14.084c-0.344,0.062-0.458-0.149-0.458-0.325c0-0.221,0-0.951,0-1.857c0-0.635-0.211-1.039-0.458-1.251
		c1.506-0.167,3.091-0.739,3.091-3.336c0-0.739-0.265-1.347-0.696-1.813c0.071-0.176,0.3-0.863-0.07-1.796
		C27.953,3.528,26.659,4.4,26.659,4.4c-0.537-0.149-1.118-0.229-1.69-0.229S23.815,4.25,23.278,4.4c0,0-1.295-0.872-1.867-0.695
		c-0.36,0.933-0.132,1.62-0.062,1.796c-0.431,0.467-0.695,1.074-0.695,1.813c0,2.588,1.576,3.169,3.082,3.336
		c-0.194,0.177-0.37,0.467-0.432,0.907c-0.388,0.176-1.374,0.476-1.964-0.563c-0.369-0.643-1.039-0.695-1.039-0.695
		c-0.66-0.009-0.044,0.413-0.044,0.413c0.44,0.203,0.749,0.986,0.749,0.986c0.396,1.206,2.28,0.802,2.28,0.802
		c0,0.563,0.009,1.101,0.009,1.259c0,0.176-0.123,0.388-0.467,0.325c-2.686-0.897-4.622-3.434-4.622-6.417
		c0-3.733,3.028-6.762,6.762-6.762s6.762,3.029,6.762,6.762C31.73,10.65,29.794,13.187,27.108,14.084z"/>
</g>
</svg>
