<?xml version="1.0" encoding="UTF-8"?>
<svg width="24px" height="24px" viewBox="0 0 24 24" version="1.1" xmlns="http://www.w3.org/2000/svg" xmlns:xlink="http://www.w3.org/1999/xlink">
    <!-- Generator: Sketch 48.2 (47327) - http://www.bohemiancoding.com/sketch -->
    <title>Favorites</title>
    <desc>Created with Sketch.</desc>
    <defs>
        <path d="M25.0275475,10.3785339 L18.0144531,10.3785339 C17.5950648,10.3809777 17.221413,10.0980055 17.0873584,9.67643072 L14.9270947,2.70292722 C14.7914615,2.28248206 14.4188943,2 14,2 C13.5811057,2 13.2085385,2.28248206 13.0729053,2.70292722 L10.9126416,9.67643072 C10.778587,10.0980055 10.4049352,10.3809777 9.98554687,10.3785339 L2.97245251,10.3785339 C2.55576319,10.3686146 2.18153558,10.6476762 2.04924532,11.0669696 C1.91695507,11.486263 2.05742934,11.9480817 2.39579073,12.206261 L8.08699887,16.544054 C8.42325964,16.7973897 8.5652279,17.2532146 8.4374318,17.6692074 L6.26829635,24.673769 C6.17507382,24.9862262 6.22923454,25.3271806 6.41383531,25.589971 C6.59843608,25.8527615 6.89093418,26.0052969 7.19982691,25.9998594 C7.40581203,25.9988408 7.60617559,25.9284832 7.77205282,25.7989223 L13.4233382,21.4921875 C13.7682284,21.2305632 14.2317716,21.2305632 14.5766618,21.4921875 L20.2279472,25.7989223 C20.3938244,25.9284832 20.594188,25.9988408 20.8001731,25.9998594 C21.1090658,26.0052969 21.4015639,25.8527615 21.5861647,25.589971 C21.7707655,25.3271806 21.8249262,24.9862262 21.7317037,24.673769 L19.5625682,17.6692074 C19.4347721,17.2532146 19.5767404,16.7973897 19.9130011,16.544054 L25.6042093,12.206261 C25.9425707,11.9480817 26.0830449,11.486263 25.9507547,11.0669696 C25.8184644,10.6476762 25.4442368,10.3686146 25.0275475,10.3785339 Z" id="path-1"></path>
    </defs>
    <g id="Glyphs-/-Navigation-or-Toolbar-/-Placeholder-1-on-Light" stroke="none" stroke-width="1" fill="none" fill-rule="evenodd" transform="translate(-2.000000, -2.000000)">
        <g id="Favorites">
            <use fill="#EC0000" fill-rule="evenodd" xlink:href="#path-1"></use>
            <path stroke="#B11016" stroke-width="1" d="M25.0394466,10.8783923 L25.0275475,10.8785339 L18.0173666,10.8785254 C17.3750522,10.8822682 16.810071,10.4543992 16.6097503,9.82438498 L14.4512423,2.85643447 C14.381065,2.63889404 14.1978769,2.5 14,2.5 C13.8021231,2.5 13.618935,2.63889404 13.5505134,2.85088148 L11.3891315,9.82794757 C11.189929,10.4543992 10.6249478,10.8822682 9.98554687,10.8785339 L2.96055338,10.8783923 C2.77058709,10.8738702 2.59258678,11.006605 2.52607524,11.2174131 C2.45651638,11.4378796 2.53010872,11.6798193 2.69888459,11.8086002 L8.3878647,16.1447049 C8.89410823,16.5261039 9.10431901,17.2010386 8.91505438,17.817115 L6.74742613,24.8167189 C6.69775125,24.9832158 6.72671074,25.1655227 6.82297712,25.3025637 C6.91325703,25.4310826 7.05004887,25.5024185 7.19735451,25.4998655 C7.29199528,25.4993975 7.38512936,25.4666935 7.46898698,25.4012402 L13.1211571,21.0938326 C13.6447077,20.6966815 14.3552923,20.6966815 14.8797276,21.0945053 L20.5357238,25.4048747 C20.6148706,25.4666935 20.7080047,25.4993975 20.8089733,25.4999368 C20.9499511,25.5024185 21.086743,25.4310826 21.1770229,25.3025637 C21.2732893,25.1655227 21.3022488,24.9832158 21.2540811,24.8216767 L19.0846136,17.8160386 C18.895681,17.2010386 19.1058918,16.5261039 19.6099073,16.1463932 L25.3009052,11.8087605 C25.4698913,11.6798193 25.5434836,11.4378796 25.4739248,11.2174131 C25.4074132,11.006605 25.2294129,10.8738702 25.0394466,10.8783923 Z"></path>
        </g>
    </g>
</svg>