<?xml version="1.0" encoding="UTF-8"?>
<svg width="13px" height="25px" viewBox="0 0 13 25" version="1.1" xmlns="http://www.w3.org/2000/svg" xmlns:xlink="http://www.w3.org/1999/xlink">
    <!-- Generator: Sketch 48.2 (47327) - http://www.bohemiancoding.com/sketch -->
    <title>Group 2</title>
    <desc>Created with Sketch.</desc>
    <defs></defs>
    <g id="Admin.Estadisticas" stroke="none" stroke-width="1" fill="none" fill-rule="evenodd" transform="translate(-825.000000, -620.000000)">
        <g id="Group-2" transform="translate(825.000000, 620.000000)" fill="#EC0000">
            <path d="M6.50038279,4.78723404 C7.79230165,4.78723404 8.84,3.71542919 8.84,2.3935844 C8.84,1.0714786 7.79230165,0 6.50038279,0 C5.20820874,0 4.16,1.0714786 4.16,2.3935844 C4.16,3.71542919 5.20795354,4.78723404 6.50038279,4.78723404 Z" id="Fill-1"></path>
            <path d="M12.900721,12.7450564 L10.2219804,6.49924445 C9.95199013,5.86954063 9.38383793,5.45160328 8.73228424,5.3389587 C8.63374862,5.3126461 4.36651416,5.31211319 4.26470276,5.33995792 C3.61386974,5.4526691 3.04702785,5.87053984 2.77756175,6.49977736 L0.0993452234,12.7448565 C-0.0614303182,13.1197611 -0.0253311644,13.551754 0.195063669,13.8939511 C0.415392987,14.236348 0.790535918,14.4424522 1.19286787,14.4424522 C1.66733261,14.4424522 2.09652599,14.156744 2.28639051,13.7143593 L3.29579098,11.3610136 L3.29579098,23.6765761 C3.29579098,24.4075335 3.87848767,25 4.59739151,25 C5.31649189,25 5.89925409,24.4075335 5.89925409,23.6765761 L5.89925409,15.3693219 L7.1010742,15.3693219 L7.1010742,23.6765761 C7.1010742,24.4075335 7.68377088,25 8.40267472,25 C9.12105443,25 9.70375112,24.4075335 9.70375112,23.677109 L9.70375112,11.3602142 L10.7136102,13.7148922 C10.9032782,14.1572769 11.3324716,14.4427187 11.8071984,14.4427187 C12.2094648,14.4427187 12.5844112,14.2368809 12.8047405,13.8944174 C13.0253319,13.5525534 13.061431,13.120294 12.900721,12.7450564 Z" id="Fill-3"></path>
        </g>
    </g>
</svg>