<?xml version="1.0" encoding="UTF-8"?>
<svg width="13px" height="25px" viewBox="0 0 13 25" version="1.1" xmlns="http://www.w3.org/2000/svg" xmlns:xlink="http://www.w3.org/1999/xlink">
    <!-- Generator: Sketch 48.2 (47327) - http://www.bohemiancoding.com/sketch -->
    <title>Group 3</title>
    <desc>Created with Sketch.</desc>
    <defs></defs>
    <g id="Admin.Estadisticas" stroke="none" stroke-width="1" fill="none" fill-rule="evenodd" transform="translate(-1041.000000, -620.000000)">
        <g id="Group-3" transform="translate(1041.000000, 620.000000)" fill="#C71212">
            <path d="M6.76042532,5.31914894 C8.19589072,5.31914894 9.36,4.12825466 9.36,2.65953822 C9.36,1.19053177 8.19589072,0 6.76042532,0 C5.32467637,0 4.16,1.19053177 4.16,2.65953822 C4.16,4.12825466 5.32439282,5.31914894 6.76042532,5.31914894 Z" id="Fill-1-Copy"></path>
            <path d="M9.70375112,13.4802038 L9.71240078,13.4802038 L10.9263621,16.1755084 C11.3799723,17.1826388 10.9312554,18.3668029 9.924125,18.8204131 C9.85222065,18.8527987 9.77862933,18.8808292 9.70375112,18.9044186 L9.70375112,23.7128629 C9.70375112,24.4235461 9.12105443,25 8.40267472,25 C7.68377088,25 7.1010742,24.4235461 7.1010742,23.7123443 L7.1010742,18.9968421 L5.89925409,18.9968421 L5.89925409,23.7123443 C5.89925409,24.4235461 5.31649189,25 4.59739151,25 C3.87848767,25 3.29579098,24.4235461 3.29579098,23.7123443 L3.29579098,18.8336111 C2.58551482,18.5266737 2.08845793,17.8198048 2.08845793,16.9968421 C2.08845793,16.7379458 2.13872402,16.4815122 2.23646604,16.2417752 L3.29579098,13.6435139 L3.29579098,11.7296348 L2.28639051,14.0193766 C2.09652599,14.449805 1.66733261,14.7277913 1.19286787,14.7277913 C0.790535918,14.7277913 0.415392987,14.5272575 0.195063669,14.1941146 C-0.0253311644,13.8611661 -0.0614303182,13.4408486 0.0993452234,13.0760766 L2.77756175,6.99978338 C3.04702785,6.38755228 3.61386974,5.98097535 4.26470276,5.87131041 C4.36651416,5.84421824 8.63374862,5.84473675 8.73228424,5.8703382 C9.38383793,5.97993832 9.95199013,6.38658007 10.2219804,6.99926487 L12.900721,13.0762711 C13.061431,13.4413672 13.0253319,13.8619439 12.8047405,14.1945683 C12.5844112,14.527776 12.2094648,14.7280506 11.8071984,14.7280506 C11.3324716,14.7280506 10.9032782,14.4503235 10.7136102,14.0198951 L9.70375112,11.7288571 L9.70375112,13.4802038 Z" id="Combined-Shape"></path>
        </g>
    </g>
</svg>