<?xml version="1.0" encoding="utf-8"?>
<!-- Generator: Adobe Illustrator 16.0.0, SVG Export Plug-In . SVG Version: 6.00 Build 0)  -->
<!DOCTYPE svg PUBLIC "-//W3C//DTD SVG 1.1//EN" "http://www.w3.org/Graphics/SVG/1.1/DTD/svg11.dtd">
<svg version="1.1" id="Layer_1" xmlns="http://www.w3.org/2000/svg" xmlns:xlink="http://www.w3.org/1999/xlink" x="0px" y="0px"
	 width="28px" height="28px" viewBox="0 0 28 28" enable-background="new 0 0 28 28" xml:space="preserve">
<title>Group 6</title>
<desc>Created with Sketch.</desc>
<g id="Perfil-del-proyecto-_x2B_-TRL-_x2B_-IRL">
	<g id="project-terminado-copy" transform="translate(-611.000000, -1779.000000)">
		<g id="Group-6" transform="translate(611.000000, 1779.000000)">
			<circle id="Oval-5" fill="#EC0000" cx="14" cy="14" r="14"/>
			<path id="Combined-Shape-Copy-2" fill="#FFFFFF" stroke="#FFFFFF" stroke-linecap="round" d="M13,19.546V7.13
				C13,6.506,13.448,6,14,6c0.553,0,1,0.506,1,1.13v12.298l6.104-6.104c0.434-0.434,1.137-0.434,1.571,0
				c0.434,0.434,0.434,1.138,0,1.571l-7.778,7.778c-0.231,0.231-0.541,0.339-0.844,0.323C14.035,23,14.018,23,14,23
				c-0.004,0-0.009,0-0.014,0c-0.268,0.004-0.537-0.097-0.741-0.301l-6.944-6.944c-0.402-0.401-0.402-1.052,0-1.454
				c0.401-0.402,1.052-0.402,1.454,0L13,19.546z"/>
		</g>
	</g>
</g>
</svg>
