<?xml version="1.0" encoding="UTF-8"?>
<svg width="19px" height="19px" viewBox="0 0 19 19" version="1.1" xmlns="http://www.w3.org/2000/svg" xmlns:xlink="http://www.w3.org/1999/xlink">
    <!-- Generator: Sketch 48.2 (47327) - http://www.bohemiancoding.com/sketch -->
    <title>Combined Shape Copy 6</title>
    <desc>Created with Sketch.</desc>
    <defs></defs>
    <g id="evaluación-2---vista-admin" stroke="none" stroke-width="1" fill="none" fill-rule="evenodd" transform="translate(-61.000000, -110.000000)" stroke-linecap="round">
        <path d="M69,124.546149 L69,112.130439 C69,111.506115 69.4477153,111 70,111 C70.5522847,111 71,111.506115 71,112.130439 L71,124.428652 L77.1032147,118.325437 C77.5371306,117.891521 78.2406472,117.891521 78.6745631,118.325437 C79.108479,118.759353 79.108479,119.462869 78.6745631,119.896785 L70.8967853,127.674563 C70.6649299,127.906419 70.3561003,128.014386 70.0525562,127.998466 C70.0351515,127.999484 70.017629,128 70,128 C69.9954802,128 69.9909674,127.999966 69.9864618,127.999899 C69.718558,128.003651 69.449467,127.903318 69.245047,127.698898 L62.3011023,120.754953 C61.8996326,120.353483 61.8996326,119.702572 62.3011023,119.301102 C62.7025721,118.899633 63.3534832,118.899633 63.754953,119.301102 L69,124.546149 Z" id="Combined-Shape-Copy-6" stroke="#FFFFFF" fill="#FFFFFF" transform="translate(70.500000, 119.500000) rotate(90.000000) translate(-70.500000, -119.500000) "></path>
    </g>
</svg>